<svg width="410" height="329" viewBox="0 0 410 329" fill="none" xmlns="http://www.w3.org/2000/svg">
<g clip-path="url(#clip0_1319_334)">
<path d="M213.161 227.824C212.324 227.674 211.529 227.335 210.832 226.83C210.135 226.325 209.552 225.667 209.125 224.902C208.698 224.136 208.437 223.283 208.361 222.401C208.284 221.519 208.394 220.63 208.682 219.797L183.202 173.823L195.246 169.869L216.527 216.251C217.836 216.849 218.889 217.927 219.487 219.281C220.085 220.635 220.186 222.171 219.771 223.598C219.356 225.024 218.454 226.242 217.236 227.021C216.017 227.8 214.567 228.086 213.161 227.824L213.161 227.824Z" fill="#FFB8B8"/>
<path d="M184.1 181.273C183.733 181.202 183.387 181.044 183.089 180.81C182.791 180.577 182.549 180.274 182.382 179.927L175.659 166.098C175.402 165.571 175.331 164.966 175.456 164.39C175.582 163.813 175.896 163.3 176.345 162.94L183.541 157.166C183.999 156.794 184.57 156.607 185.15 156.638C185.73 156.67 186.279 156.918 186.699 157.337L196.678 167.229C196.922 167.47 197.115 167.762 197.245 168.086C197.375 168.41 197.44 168.758 197.434 169.109C197.429 169.46 197.354 169.806 197.214 170.125C197.073 170.444 196.871 170.729 196.62 170.962L186.168 180.674C185.891 180.933 185.56 181.122 185.201 181.226C184.842 181.33 184.465 181.346 184.1 181.273H184.1Z" fill="#D6EFC7"/>
<path d="M410 119.429C410 84.0213 382.486 0 348.545 0C314.604 0 287.09 84.0213 287.09 119.429C287.088 127.85 288.675 136.189 291.763 143.969C294.85 151.75 299.377 158.82 305.083 164.775C310.79 170.73 317.566 175.454 325.023 178.677C332.48 181.901 340.473 183.559 348.545 183.559C356.617 183.559 364.61 181.901 372.067 178.677C379.524 175.454 386.3 170.73 392.007 164.775C397.714 158.82 402.24 151.75 405.327 143.969C408.415 136.189 410.003 127.85 410 119.429Z" fill="#D6EFC7"/>
<path d="M348.544 314.417C348.678 314.417 348.807 314.361 348.902 314.262C348.997 314.163 349.05 314.029 349.05 313.89V53.8424C349.05 53.7025 348.997 53.5685 348.902 53.4696C348.807 53.3707 348.678 53.3152 348.544 53.3152C348.41 53.3152 348.282 53.3707 348.187 53.4696C348.092 53.5685 348.039 53.7025 348.039 53.8424V313.89C348.039 314.029 348.092 314.163 348.187 314.262C348.282 314.361 348.41 314.417 348.544 314.417Z" fill="#3F3D56"/>
<path d="M348.544 96.5151C348.611 96.5152 348.676 96.5016 348.738 96.475C348.799 96.4485 348.855 96.4096 348.902 96.3606L373.226 70.9854C373.319 70.8863 373.372 70.7526 373.372 70.6133C373.371 70.474 373.318 70.3405 373.223 70.242C373.129 70.1435 373.001 70.088 372.868 70.0876C372.734 70.0873 372.606 70.142 372.511 70.2399L348.187 95.6152C348.116 95.6889 348.068 95.7828 348.049 95.8851C348.029 95.9873 348.039 96.0933 348.078 96.1896C348.116 96.2859 348.181 96.3683 348.264 96.4262C348.347 96.4841 348.444 96.515 348.544 96.515V96.5151Z" fill="#3F3D56"/>
<path d="M348.545 140.445C348.645 140.445 348.742 140.414 348.825 140.356C348.909 140.298 348.973 140.215 349.012 140.119C349.05 140.023 349.06 139.917 349.04 139.815C349.021 139.712 348.973 139.618 348.902 139.545L308.167 97.0489C308.072 96.9511 307.944 96.8965 307.811 96.897C307.677 96.8974 307.55 96.9529 307.455 97.0514C307.361 97.1498 307.308 97.2831 307.307 97.4223C307.307 97.5615 307.359 97.6952 307.453 97.7943L348.187 140.29C348.234 140.339 348.29 140.378 348.351 140.405C348.413 140.431 348.478 140.445 348.545 140.445Z" fill="#3F3D56"/>
<path d="M385.38 328.754C385.292 328.825 385.2 328.888 385.111 328.957H309.77C308.294 322.718 307.772 316.471 309.978 311.046C313.119 303.316 322.418 298.491 329.81 301.811C331.562 302.619 333.087 303.878 334.244 305.47C337.133 300.076 342.315 296.008 348.296 296.012C355.79 296.018 362.021 302.411 364.054 309.796C367.329 304.031 373.796 300.001 380.117 301.735C390.691 304.634 394.03 321.78 385.38 328.754Z" fill="#F2F2F2"/>
<path d="M88.3806 206.806C88.3806 181.363 68.5959 120.987 44.1903 120.987C19.7847 120.987 0 181.363 0 206.806C0.00885773 219.027 4.66852 230.744 12.9549 239.382C21.2412 248.02 32.4761 252.872 44.1903 252.872C55.9045 252.872 67.1394 248.02 75.4258 239.382C83.7121 230.744 88.3718 219.027 88.3806 206.806Z" fill="#E6E6E6"/>
<path d="M44.1905 318.888C44.2382 318.888 44.2855 318.878 44.3295 318.859C44.3736 318.84 44.4137 318.812 44.4474 318.777C44.4811 318.742 44.5079 318.7 44.5262 318.654C44.5445 318.608 44.5539 318.559 44.5539 318.509V159.677C44.5535 159.576 44.5151 159.48 44.447 159.41C44.3789 159.339 44.2866 159.299 44.1905 159.299C44.0944 159.299 44.0022 159.339 43.934 159.41C43.8659 159.48 43.8275 159.576 43.8271 159.677V318.509C43.8272 318.559 43.8366 318.608 43.8548 318.654C43.8731 318.7 43.8999 318.742 43.9336 318.777C43.9674 318.812 44.0074 318.84 44.0515 318.859C44.0956 318.878 44.1428 318.888 44.1905 318.888Z" fill="#3F3D56"/>
<path d="M44.1904 190.34C44.2381 190.341 44.2854 190.331 44.3295 190.312C44.3736 190.293 44.4137 190.265 44.4474 190.229L61.9379 171.995C62.0059 171.924 62.0442 171.828 62.0441 171.727C62.0441 171.627 62.0058 171.531 61.9376 171.46C61.8695 171.388 61.7771 171.349 61.6807 171.349C61.5844 171.349 61.492 171.389 61.4239 171.46L43.9335 189.694C43.8827 189.747 43.8481 189.814 43.8341 189.888C43.8201 189.961 43.8273 190.038 43.8548 190.107C43.8823 190.176 43.9289 190.235 43.9886 190.277C44.0484 190.318 44.1186 190.341 44.1904 190.34L44.1904 190.34Z" fill="#3F3D56"/>
<path d="M44.1903 221.907C44.2621 221.907 44.3324 221.885 44.3921 221.844C44.4519 221.802 44.4984 221.743 44.5259 221.674C44.5534 221.604 44.5606 221.528 44.5466 221.455C44.5326 221.381 44.4981 221.314 44.4473 221.261L15.1563 190.724C15.0882 190.653 14.9959 190.613 14.8995 190.613C14.8032 190.613 14.7108 190.653 14.6426 190.724C14.5745 190.795 14.5362 190.891 14.5361 190.992C14.5361 191.092 14.5743 191.189 14.6424 191.26L43.9333 221.796C43.9671 221.832 44.0071 221.86 44.0512 221.879C44.0953 221.898 44.1426 221.907 44.1903 221.907Z" fill="#3F3D56"/>
<path d="M70.4786 328.811C70.4154 328.862 70.349 328.908 70.2852 328.957H16.1098C15.0483 324.473 14.6734 319.985 16.259 316.087C18.5181 310.532 25.2044 307.065 30.52 309.45C31.7793 310.031 32.8764 310.935 33.7081 312.08C35.7854 308.203 39.5117 305.281 43.8128 305.284C49.2014 305.288 53.6818 309.882 55.1438 315.188C57.4983 311.045 62.1488 308.15 66.6943 309.395C74.2971 311.479 76.6985 323.8 70.4786 328.811Z" fill="#F2F2F2"/>
<path d="M91.7172 328.957H284.248C284.382 328.957 284.511 328.902 284.606 328.803C284.7 328.704 284.754 328.57 284.754 328.43C284.754 328.29 284.7 328.156 284.606 328.057C284.511 327.959 284.382 327.903 284.248 327.903H91.7172C91.5832 327.903 91.4547 327.959 91.3599 328.057C91.2651 328.156 91.2119 328.29 91.2119 328.43C91.2119 328.57 91.2651 328.704 91.3599 328.803C91.4547 328.902 91.5832 328.957 91.7172 328.957Z" fill="#3F3D56"/>
<path d="M182.855 184.597C182.491 184.515 182.149 184.347 181.857 184.105C181.566 183.863 181.332 183.554 181.173 183.202L174.818 169.185C174.576 168.65 174.521 168.044 174.661 167.471C174.802 166.899 175.13 166.395 175.588 166.047L182.934 160.482C183.402 160.124 183.978 159.954 184.557 160.002C185.135 160.05 185.678 160.313 186.086 160.744L195.8 170.92C196.037 171.169 196.223 171.466 196.344 171.793C196.466 172.12 196.521 172.47 196.506 172.821C196.492 173.172 196.407 173.515 196.259 173.83C196.11 174.145 195.901 174.424 195.643 174.65L184.939 184.058C184.655 184.309 184.319 184.488 183.957 184.582C183.596 184.675 183.219 184.68 182.855 184.597Z" fill="#D6EFC7"/>
<path d="M142.594 317.492L148.987 319.307L158.739 294.445L149.304 291.767L142.594 317.492Z" fill="#FFB8B8"/>
<path d="M159.702 329L139.609 323.297L141.721 315.198L154.555 318.841C156.48 319.387 158.118 320.709 159.109 322.516C160.1 324.322 160.363 326.465 159.839 328.474L159.702 329Z" fill="#2F2E41"/>
<path d="M197.249 322.582L203.874 322.581L207.027 295.92L197.248 295.921L197.249 322.582Z" fill="#FFB8B8"/>
<path d="M216.653 328.999L195.829 329L195.829 320.607L209.13 320.606C211.125 320.606 213.038 321.433 214.449 322.904C215.86 324.376 216.653 326.372 216.653 328.454L216.653 328.999Z" fill="#2F2E41"/>
<path d="M196.654 142.496C201.837 137.088 201.837 128.321 196.654 122.913C191.47 117.505 183.065 117.505 177.882 122.913C172.698 128.321 172.698 137.088 177.882 142.496C183.065 147.904 191.47 147.904 196.654 142.496Z" fill="#FFB8B8"/>
<path d="M195.245 301.379L187.826 244.781C187.771 244.361 187.587 243.971 187.303 243.668C187.018 243.365 186.648 243.166 186.247 243.1C185.845 243.034 185.434 243.104 185.074 243.301C184.714 243.497 184.424 243.81 184.248 244.192L158.997 298.828C158.74 299.377 158.303 299.812 157.765 300.053C157.227 300.295 156.624 300.326 156.065 300.143L146.334 296.894C145.732 296.696 145.228 296.259 144.929 295.678C144.63 295.097 144.561 294.418 144.736 293.784C156.572 250.189 166.792 217.754 178.196 201.164C178.24 201.099 178.286 201.038 178.336 200.978L180.864 197.9C181.093 197.622 181.376 197.399 181.695 197.246C182.013 197.093 182.36 197.014 182.711 197.014H201.33C201.817 197.012 202.292 197.164 202.695 197.448C203.098 197.733 203.409 198.137 203.588 198.609L204.073 199.874C204.112 199.975 204.145 200.079 204.172 200.185C210.258 224.352 211.836 256.448 209.138 301.192C209.099 301.836 208.825 302.441 208.374 302.883C207.923 303.325 207.328 303.571 206.709 303.572H197.654C197.067 303.57 196.5 303.347 196.057 302.945C195.615 302.542 195.326 301.986 195.245 301.379Z" fill="#2F2E41"/>
<path d="M177.295 200.015C174.613 195.536 161.813 172.401 173.303 156.731C173.509 156.454 173.642 156.125 173.688 155.778L174.144 152.134C174.186 151.793 174.293 151.465 174.461 151.17C174.628 150.874 174.851 150.617 175.116 150.414C175.382 150.211 175.684 150.066 176.005 149.989C176.325 149.911 176.658 149.903 176.982 149.964C180.975 150.722 188.498 153.106 194.007 160.551C194.27 160.909 194.436 161.335 194.487 161.783L194.791 164.321C194.83 164.654 194.95 164.972 195.14 165.243C195.331 165.514 195.585 165.729 195.879 165.867C199.393 167.532 207.255 174.018 204.388 198.228C204.32 198.831 204.046 199.387 203.616 199.797C203.187 200.206 202.631 200.44 202.049 200.457L179.433 201.202C179.407 201.203 179.382 201.203 179.356 201.203C178.944 201.203 178.539 201.094 178.179 200.886C177.819 200.678 177.515 200.378 177.295 200.015Z" fill="#D6EFC7"/>
<path d="M168.123 237.12C167.549 236.468 167.119 235.693 166.862 234.849C166.606 234.005 166.531 233.112 166.641 232.234C166.751 231.356 167.045 230.514 167.501 229.767C167.957 229.02 168.564 228.387 169.28 227.912L176.038 175.276L187.888 179.823L177.567 230.105C178.253 231.413 178.455 232.938 178.135 234.391C177.816 235.844 176.996 237.124 175.832 237.988C174.668 238.853 173.24 239.242 171.82 239.082C170.399 238.922 169.084 238.224 168.123 237.12Z" fill="#FFB8B8"/>
<path d="M172.385 181.745C172.136 181.455 171.955 181.109 171.856 180.735C171.757 180.36 171.742 179.966 171.813 179.584L174.591 164.352C174.697 163.771 174.995 163.247 175.432 162.87C175.868 162.494 176.418 162.288 176.984 162.289L186.063 162.305C186.643 162.304 187.205 162.52 187.645 162.914C188.086 163.308 188.376 163.855 188.462 164.454L190.568 178.645C190.619 178.992 190.601 179.347 190.515 179.686C190.428 180.025 190.275 180.342 190.065 180.616C189.855 180.89 189.593 181.116 189.296 181.279C188.998 181.443 188.671 181.54 188.335 181.564L174.373 182.59C174.002 182.618 173.629 182.557 173.284 182.41C172.939 182.264 172.631 182.036 172.385 181.745L172.385 181.745Z" fill="#D6EFC7"/>
<path d="M172.663 124.092C173.649 120.975 174.377 117.774 174.839 114.527C174.984 112.636 174.519 110.602 173.199 109.297C170.729 106.856 166.533 108.018 163.949 110.329C160.216 113.668 158.354 118.8 157.651 123.877C156.947 128.955 157.257 134.118 157.087 139.245C156.918 144.372 156.215 149.644 153.709 154.058C151.204 158.473 146.554 161.861 141.65 161.485C139.67 161.374 137.79 160.543 136.337 159.137C135.623 158.428 135.083 157.552 134.761 156.581C134.439 155.61 134.345 154.573 134.487 153.556C131.98 158.239 133.251 164.585 136.99 168.266C140.729 171.947 146.48 172.988 151.395 171.416C156.31 169.844 160.356 165.904 162.772 161.17C165.189 156.436 166.074 150.967 165.946 145.605C165.848 141.488 165.177 137.337 165.844 133.278C166.51 129.218 168.946 125.097 172.786 124.141L172.663 124.092Z" fill="#2F2E41"/>
<path d="M185.073 145.578C184.552 144.716 184.215 143.747 184.084 142.737C183.954 141.728 184.034 140.7 184.319 139.725C184.603 138.751 185.086 137.851 185.734 137.089C186.381 136.326 187.179 135.717 188.072 135.305C190.479 134.194 193.263 134.619 195.845 134.091C200.473 133.146 204.283 128.737 204.558 123.826C204.833 118.915 201.436 114.006 196.846 112.878C195.015 112.428 193.106 112.534 191.228 112.643C189.424 112.747 187.618 112.851 185.823 113.066C182.271 113.49 178.678 114.388 175.722 116.485C172.766 118.583 170.534 122.057 170.572 125.786C170.616 130.042 172.54 138.516 175.216 141.729C177.798 144.829 179.764 145.947 183.862 146.158L185.073 145.578Z" fill="#2F2E41"/>
<path d="M234.985 196.658H228.75V190.154C228.75 189.944 228.671 189.743 228.528 189.594C228.386 189.446 228.193 189.363 227.992 189.363C227.791 189.363 227.599 189.446 227.456 189.594C227.314 189.743 227.234 189.944 227.234 190.154V196.658H221C220.799 196.658 220.606 196.741 220.464 196.889C220.322 197.038 220.242 197.239 220.242 197.449C220.242 197.658 220.322 197.859 220.464 198.008C220.606 198.156 220.799 198.239 221 198.239H227.234V204.744C227.234 204.953 227.314 205.154 227.456 205.303C227.599 205.451 227.791 205.534 227.992 205.534C228.193 205.534 228.386 205.451 228.528 205.303C228.671 205.154 228.75 204.953 228.75 204.744V198.239H234.985C235.186 198.239 235.379 198.156 235.521 198.008C235.663 197.859 235.743 197.658 235.743 197.449C235.743 197.239 235.663 197.038 235.521 196.889C235.379 196.741 235.186 196.658 234.985 196.658Z" fill="#D6EFC7"/>
<path d="M217.299 95.9671H211.064V89.4629C211.064 89.2532 210.984 89.052 210.842 88.9037C210.7 88.7554 210.507 88.6721 210.306 88.6721C210.105 88.6721 209.912 88.7554 209.77 88.9037C209.628 89.052 209.548 89.2532 209.548 89.4629V95.9671H203.313C203.112 95.9671 202.919 96.0504 202.777 96.1987C202.635 96.347 202.555 96.5482 202.555 96.7579C202.555 96.9676 202.635 97.1687 202.777 97.317C202.919 97.4653 203.112 97.5486 203.313 97.5486H209.548V104.053C209.548 104.263 209.628 104.464 209.77 104.612C209.912 104.76 210.105 104.844 210.306 104.844C210.507 104.844 210.7 104.76 210.842 104.612C210.984 104.464 211.064 104.263 211.064 104.053V97.5486H217.299C217.5 97.5486 217.692 97.4653 217.835 97.317C217.977 97.1687 218.057 96.9676 218.057 96.7579C218.057 96.5482 217.977 96.347 217.835 96.1987C217.692 96.0504 217.5 95.9671 217.299 95.9671Z" fill="#D6EFC7"/>
<path d="M136.446 125.489H130.211V118.985C130.211 118.775 130.131 118.574 129.989 118.426C129.847 118.277 129.654 118.194 129.453 118.194C129.252 118.194 129.059 118.277 128.917 118.426C128.775 118.574 128.695 118.775 128.695 118.985V125.489H122.46C122.259 125.489 122.066 125.572 121.924 125.721C121.782 125.869 121.702 126.07 121.702 126.28C121.702 126.49 121.782 126.691 121.924 126.839C122.066 126.987 122.259 127.071 122.46 127.071H128.695V133.575C128.695 133.785 128.775 133.986 128.917 134.134C129.059 134.282 129.252 134.366 129.453 134.366C129.654 134.366 129.847 134.282 129.989 134.134C130.131 133.986 130.211 133.785 130.211 133.575V127.071H136.446C136.647 127.071 136.839 126.987 136.982 126.839C137.124 126.691 137.204 126.49 137.204 126.28C137.204 126.07 137.124 125.869 136.982 125.721C136.839 125.572 136.647 125.489 136.446 125.489Z" fill="#D6EFC7"/>
</g>
<defs>
<clipPath id="clip0_1319_334">
<path d="M0 0H410V309C410 320.046 401.046 329 390 329H0V0Z" fill="white"/>
</clipPath>
</defs>
</svg>
